<?xml version="1.0" standalone="no"?><!DOCTYPE svg PUBLIC "-//W3C//DTD SVG 1.1//EN" "http://www.w3.org/Graphics/SVG/1.1/DTD/svg11.dtd"><svg t="1693140534676" class="icon" viewBox="0 0 1024 1024" version="1.1" xmlns="http://www.w3.org/2000/svg" p-id="1572" width="1200" height="1200" xmlns:xlink="http://www.w3.org/1999/xlink"><path d="M738.624 282.272h-107.296c-0.32-0.16-0.704-0.256-1.12-0.256s-0.8 0.096-1.12 0.256l-99.744 124.672a12.48 12.48 0 0 1-9.344 4.448h-16.032a12.352 12.352 0 0 1-9.76-4.864l-0.032-0.032-99.296-122.88H285.344a3.136 3.136 0 0 0-2.208 4.896l158.496 196.352c9.6 11.936 24.16 19.52 40.512 19.584h59.232a52.48 52.48 0 0 0 40.448-19.488l0.064-0.096 158.496-196.352a3.2 3.2 0 0 0 2.336-3.104 3.2 3.2 0 0 0-4.16-3.104h0.032z m-167.424 274.688a48.96 48.96 0 0 0-39.168-19.584h-56.992c-15.968 0-30.144 7.648-39.104 19.456l-0.096 0.128-152.704 196.8a3.136 3.136 0 0 0 2.208 4.896h105.504l95.712-123.328a11.584 11.584 0 0 1 9.12-4.448h15.584c3.68 0 6.976 1.728 9.12 4.416l0.032 0.032 95.712 121.536h103.296a3.136 3.136 0 0 0 2.208-4.896zM512 1024C229.216 1024 0 794.784 0 512S229.216 0 512 0s512 229.216 512 512-229.216 512-512 512z" p-id="1573" fill="#306fdb"></path></svg>